<svg width="22" height="22" viewBox="0 0 22 22" fill="none" xmlns="http://www.w3.org/2000/svg">
<rect width="22" height="22" fill="#E0E0E0"/>
<g id="Project Management - Add Project" clip-path="url(#clip0_7623_3883)">
<rect width="1440" height="1170" transform="translate(-529 -901)" fill="#F1F3F7"/>
<g id="Projects">
<g id="Project">
<g id="Elements / Container [bg]">
<g id="shadow" filter="url(#filter0_d_7623_3883)">
<rect x="-221" y="-29" width="334" height="272" rx="16" fill="white"/>
</g>
<g id="bg" filter="url(#filter1_d_7623_3883)">
<rect x="-229" y="-33" width="350" height="272" rx="16" fill="white"/>
</g>
</g>
<path id="Web App on Vue.js" d="M-127.258 13.126C-127.522 13.126 -127.738 13.06 -127.906 12.928C-128.062 12.796 -128.194 12.592 -128.302 12.316L-132.172 1.282C-132.28 0.969999 -132.262 0.711999 -132.118 0.508C-131.962 0.292 -131.71 0.184 -131.362 0.184C-131.098 0.184 -130.894 0.244 -130.75 0.364C-130.594 0.483999 -130.474 0.676 -130.39 0.94L-126.88 11.272H-127.546L-123.946 0.975999C-123.838 0.711999 -123.712 0.513999 -123.568 0.381999C-123.424 0.25 -123.232 0.184 -122.992 0.184C-122.752 0.184 -122.566 0.25 -122.434 0.381999C-122.29 0.513999 -122.164 0.717999 -122.056 0.993999L-118.528 11.272H-119.122L-115.576 0.94C-115.492 0.687999 -115.378 0.501999 -115.234 0.381999C-115.078 0.25 -114.874 0.184 -114.622 0.184C-114.31 0.184 -114.082 0.292 -113.938 0.508C-113.782 0.711999 -113.764 0.969999 -113.884 1.282L-117.772 12.334C-117.88 12.598 -118.012 12.796 -118.168 12.928C-118.324 13.06 -118.534 13.126 -118.798 13.126C-119.074 13.126 -119.29 13.06 -119.446 12.928C-119.602 12.796 -119.728 12.592 -119.824 12.316L-123.226 2.578H-122.83L-126.268 12.334C-126.364 12.598 -126.49 12.796 -126.646 12.928C-126.79 13.06 -126.994 13.126 -127.258 13.126ZM-108.756 13.162C-109.716 13.162 -110.544 12.982 -111.24 12.622C-111.924 12.25 -112.458 11.728 -112.842 11.056C-113.214 10.372 -113.4 9.562 -113.4 8.626C-113.4 7.714 -113.214 6.916 -112.842 6.232C-112.47 5.548 -111.96 5.014 -111.312 4.63C-110.664 4.246 -109.926 4.054 -109.098 4.054C-108.486 4.054 -107.94 4.156 -107.46 4.36C-106.98 4.552 -106.572 4.84 -106.236 5.224C-105.888 5.596 -105.63 6.052 -105.462 6.592C-105.282 7.132 -105.192 7.738 -105.192 8.41C-105.192 8.614 -105.252 8.77 -105.372 8.878C-105.492 8.974 -105.672 9.022 -105.912 9.022H-111.96V7.906H-106.416L-106.722 8.158C-106.722 7.558 -106.812 7.048 -106.992 6.628C-107.16 6.208 -107.418 5.89 -107.766 5.674C-108.102 5.446 -108.522 5.332 -109.026 5.332C-109.59 5.332 -110.07 5.464 -110.466 5.728C-110.85 5.992 -111.144 6.358 -111.348 6.826C-111.552 7.294 -111.654 7.84 -111.654 8.464V8.572C-111.654 9.628 -111.408 10.426 -110.916 10.966C-110.412 11.494 -109.686 11.758 -108.738 11.758C-108.378 11.758 -108 11.71 -107.604 11.614C-107.196 11.518 -106.812 11.356 -106.452 11.128C-106.248 11.008 -106.068 10.954 -105.912 10.966C-105.744 10.978 -105.612 11.032 -105.516 11.128C-105.408 11.224 -105.342 11.344 -105.318 11.488C-105.294 11.632 -105.318 11.782 -105.39 11.938C-105.462 12.082 -105.588 12.214 -105.768 12.334C-106.176 12.61 -106.65 12.82 -107.19 12.964C-107.73 13.096 -108.252 13.162 -108.756 13.162ZM-98.4943 13.162C-99.2623 13.162 -99.9283 12.97 -100.492 12.586C-101.056 12.19 -101.434 11.668 -101.626 11.02L-101.428 10.696V12.208C-101.428 12.496 -101.506 12.724 -101.662 12.892C-101.818 13.048 -102.034 13.126 -102.31 13.126C-102.598 13.126 -102.82 13.048 -102.976 12.892C-103.132 12.724 -103.21 12.496 -103.21 12.208V1.102C-103.21 0.801999 -103.132 0.573999 -102.976 0.417999C-102.82 0.261999 -102.598 0.184 -102.31 0.184C-102.022 0.184 -101.8 0.261999 -101.644 0.417999C-101.476 0.573999 -101.392 0.801999 -101.392 1.102V6.142H-101.608C-101.416 5.506 -101.038 5.002 -100.474 4.63C-99.9103 4.246 -99.2503 4.054 -98.4943 4.054C-97.7023 4.054 -97.0183 4.24 -96.4423 4.612C-95.8663 4.984 -95.4223 5.506 -95.1103 6.178C-94.7863 6.85 -94.6243 7.66 -94.6243 8.608C-94.6243 9.532 -94.7863 10.342 -95.1103 11.038C-95.4223 11.722 -95.8723 12.25 -96.4603 12.622C-97.0363 12.982 -97.7143 13.162 -98.4943 13.162ZM-98.9443 11.758C-98.4403 11.758 -98.0023 11.638 -97.6303 11.398C-97.2583 11.158 -96.9703 10.804 -96.7663 10.336C-96.5623 9.868 -96.4603 9.292 -96.4603 8.608C-96.4603 7.576 -96.6883 6.796 -97.1443 6.268C-97.5883 5.74 -98.1883 5.476 -98.9443 5.476C-99.4363 5.476 -99.8743 5.596 -100.258 5.836C-100.63 6.064 -100.918 6.412 -101.122 6.88C-101.326 7.348 -101.428 7.924 -101.428 8.608C-101.428 9.628 -101.2 10.408 -100.744 10.948C-100.288 11.488 -99.6883 11.758 -98.9443 11.758ZM-87.7034 13.126C-87.9434 13.126 -88.1354 13.072 -88.2794 12.964C-88.4234 12.856 -88.5074 12.712 -88.5314 12.532C-88.5554 12.352 -88.5194 12.148 -88.4234 11.92L-83.5454 0.975999C-83.4254 0.687999 -83.2754 0.483999 -83.0954 0.364C-82.9034 0.244 -82.6934 0.184 -82.4654 0.184C-82.2494 0.184 -82.0514 0.244 -81.8714 0.364C-81.6794 0.483999 -81.5234 0.687999 -81.4034 0.975999L-76.5254 11.92C-76.4174 12.148 -76.3754 12.358 -76.3994 12.55C-76.4234 12.73 -76.5014 12.874 -76.6334 12.982C-76.7654 13.078 -76.9514 13.126 -77.1914 13.126C-77.4554 13.126 -77.6654 13.06 -77.8214 12.928C-77.9774 12.796 -78.1154 12.592 -78.2354 12.316L-79.4954 9.4L-78.6494 9.904H-86.3174L-85.4894 9.4L-86.7314 12.316C-86.8514 12.604 -86.9834 12.814 -87.1274 12.946C-87.2714 13.066 -87.4634 13.126 -87.7034 13.126ZM-82.5014 2.38L-85.2194 8.824L-85.6694 8.392H-79.3154L-79.7294 8.824L-82.4654 2.38H-82.5014ZM-73.6755 16.366C-73.9635 16.366 -74.1855 16.288 -74.3415 16.132C-74.4975 15.976 -74.5755 15.748 -74.5755 15.448V5.008C-74.5755 4.708 -74.4975 4.48 -74.3415 4.324C-74.1855 4.168 -73.9695 4.09 -73.6935 4.09C-73.4055 4.09 -73.1835 4.168 -73.0275 4.324C-72.8715 4.48 -72.7935 4.708 -72.7935 5.008V6.574L-72.9915 6.196C-72.7995 5.548 -72.4215 5.032 -71.8575 4.648C-71.2935 4.252 -70.6275 4.054 -69.8595 4.054C-69.0795 4.054 -68.4015 4.24 -67.8255 4.612C-67.2375 4.984 -66.7875 5.506 -66.4755 6.178C-66.1515 6.85 -65.9895 7.66 -65.9895 8.608C-65.9895 9.532 -66.1515 10.342 -66.4755 11.038C-66.7875 11.722 -67.2315 12.25 -67.8075 12.622C-68.3835 12.982 -69.0675 13.162 -69.8595 13.162C-70.6155 13.162 -71.2755 12.97 -71.8395 12.586C-72.4035 12.202 -72.7815 11.692 -72.9735 11.056H-72.7575V15.448C-72.7575 15.748 -72.8415 15.976 -73.0095 16.132C-73.1655 16.288 -73.3875 16.366 -73.6755 16.366ZM-70.3095 11.758C-69.8055 11.758 -69.3675 11.638 -68.9955 11.398C-68.6235 11.158 -68.3355 10.804 -68.1315 10.336C-67.9275 9.868 -67.8255 9.292 -67.8255 8.608C-67.8255 7.576 -68.0535 6.796 -68.5095 6.268C-68.9535 5.74 -69.5535 5.476 -70.3095 5.476C-70.8015 5.476 -71.2395 5.596 -71.6235 5.836C-71.9955 6.064 -72.2835 6.412 -72.4875 6.88C-72.6915 7.348 -72.7935 7.924 -72.7935 8.608C-72.7935 9.628 -72.5655 10.408 -72.1095 10.948C-71.6535 11.488 -71.0535 11.758 -70.3095 11.758ZM-63.0407 16.366C-63.3287 16.366 -63.5507 16.288 -63.7067 16.132C-63.8627 15.976 -63.9407 15.748 -63.9407 15.448V5.008C-63.9407 4.708 -63.8627 4.48 -63.7067 4.324C-63.5507 4.168 -63.3347 4.09 -63.0587 4.09C-62.7707 4.09 -62.5487 4.168 -62.3927 4.324C-62.2367 4.48 -62.1587 4.708 -62.1587 5.008V6.574L-62.3567 6.196C-62.1647 5.548 -61.7867 5.032 -61.2227 4.648C-60.6587 4.252 -59.9927 4.054 -59.2247 4.054C-58.4447 4.054 -57.7667 4.24 -57.1907 4.612C-56.6027 4.984 -56.1527 5.506 -55.8407 6.178C-55.5167 6.85 -55.3547 7.66 -55.3547 8.608C-55.3547 9.532 -55.5167 10.342 -55.8407 11.038C-56.1527 11.722 -56.5967 12.25 -57.1727 12.622C-57.7487 12.982 -58.4327 13.162 -59.2247 13.162C-59.9807 13.162 -60.6407 12.97 -61.2047 12.586C-61.7687 12.202 -62.1467 11.692 -62.3387 11.056H-62.1227V15.448C-62.1227 15.748 -62.2067 15.976 -62.3747 16.132C-62.5307 16.288 -62.7527 16.366 -63.0407 16.366ZM-59.6747 11.758C-59.1707 11.758 -58.7327 11.638 -58.3607 11.398C-57.9887 11.158 -57.7007 10.804 -57.4967 10.336C-57.2927 9.868 -57.1907 9.292 -57.1907 8.608C-57.1907 7.576 -57.4187 6.796 -57.8747 6.268C-58.3187 5.74 -58.9187 5.476 -59.6747 5.476C-60.1667 5.476 -60.6047 5.596 -60.9887 5.836C-61.3607 6.064 -61.6487 6.412 -61.8527 6.88C-62.0567 7.348 -62.1587 7.924 -62.1587 8.608C-62.1587 9.628 -61.9307 10.408 -61.4747 10.948C-61.0187 11.488 -60.4187 11.758 -59.6747 11.758ZM-44.7439 13.162C-45.6319 13.162 -46.3999 12.976 -47.0479 12.604C-47.6839 12.232 -48.1819 11.704 -48.5419 11.02C-48.9019 10.336 -49.0819 9.532 -49.0819 8.608C-49.0819 7.9 -48.9799 7.27 -48.7759 6.718C-48.5719 6.166 -48.2839 5.692 -47.9119 5.296C-47.5279 4.888 -47.0719 4.582 -46.5439 4.378C-46.0039 4.162 -45.4039 4.054 -44.7439 4.054C-43.8679 4.054 -43.1119 4.24 -42.4759 4.612C-41.8279 4.984 -41.3239 5.512 -40.9639 6.196C-40.6039 6.868 -40.4239 7.672 -40.4239 8.608C-40.4239 9.304 -40.5259 9.934 -40.7299 10.498C-40.9339 11.062 -41.2279 11.542 -41.6119 11.938C-41.9839 12.334 -42.4399 12.64 -42.9799 12.856C-43.5079 13.06 -44.0959 13.162 -44.7439 13.162ZM-44.7439 11.758C-44.2519 11.758 -43.8199 11.638 -43.4479 11.398C-43.0759 11.158 -42.7879 10.804 -42.5839 10.336C-42.3679 9.868 -42.2599 9.292 -42.2599 8.608C-42.2599 7.576 -42.4879 6.796 -42.9439 6.268C-43.3999 5.74 -43.9999 5.476 -44.7439 5.476C-45.2479 5.476 -45.6859 5.596 -46.0579 5.836C-46.4299 6.064 -46.7239 6.412 -46.9399 6.88C-47.1439 7.348 -47.2459 7.924 -47.2459 8.608C-47.2459 9.628 -47.0179 10.408 -46.5619 10.948C-46.1059 11.488 -45.4999 11.758 -44.7439 11.758ZM-37.4822 13.126C-37.7702 13.126 -37.9922 13.048 -38.1482 12.892C-38.3042 12.724 -38.3822 12.496 -38.3822 12.208V5.008C-38.3822 4.708 -38.3042 4.48 -38.1482 4.324C-37.9922 4.168 -37.7762 4.09 -37.5002 4.09C-37.2122 4.09 -36.9962 4.168 -36.8522 4.324C-36.6962 4.48 -36.6182 4.708 -36.6182 5.008V6.412L-36.8162 6.088C-36.5522 5.416 -36.1382 4.912 -35.5742 4.576C-35.0102 4.228 -34.3622 4.054 -33.6302 4.054C-32.9342 4.054 -32.3582 4.186 -31.9022 4.45C-31.4342 4.702 -31.0862 5.092 -30.8582 5.62C-30.6302 6.136 -30.5162 6.79 -30.5162 7.582V12.208C-30.5162 12.496 -30.5942 12.724 -30.7502 12.892C-30.9062 13.048 -31.1282 13.126 -31.4162 13.126C-31.7162 13.126 -31.9442 13.048 -32.1002 12.892C-32.2562 12.724 -32.3342 12.496 -32.3342 12.208V7.69C-32.3342 6.934 -32.4842 6.382 -32.7842 6.034C-33.0722 5.686 -33.5282 5.512 -34.1522 5.512C-34.8842 5.512 -35.4722 5.74 -35.9162 6.196C-36.3482 6.652 -36.5642 7.264 -36.5642 8.032V12.208C-36.5642 12.82 -36.8702 13.126 -37.4822 13.126ZM-18.243 13.126C-18.507 13.126 -18.729 13.066 -18.909 12.946C-19.077 12.814 -19.215 12.622 -19.323 12.37L-24.165 1.408C-24.261 1.156 -24.285 0.94 -24.237 0.76C-24.189 0.579999 -24.093 0.441999 -23.949 0.346C-23.793 0.238 -23.607 0.184 -23.391 0.184C-23.115 0.184 -22.905 0.244 -22.761 0.364C-22.617 0.483999 -22.497 0.663999 -22.401 0.903999L-17.865 11.416H-18.531L-14.031 0.885999C-13.923 0.657999 -13.797 0.483999 -13.653 0.364C-13.497 0.244 -13.287 0.184 -13.023 0.184C-12.807 0.184 -12.633 0.238 -12.501 0.346C-12.357 0.441999 -12.267 0.579999 -12.231 0.76C-12.195 0.94 -12.231 1.156 -12.339 1.408L-17.163 12.37C-17.271 12.622 -17.409 12.814 -17.577 12.946C-17.745 13.066 -17.967 13.126 -18.243 13.126ZM-8.42594 13.162C-9.13394 13.162 -9.72794 13.03 -10.2079 12.766C-10.6759 12.502 -11.0299 12.112 -11.2699 11.596C-11.4979 11.068 -11.6119 10.408 -11.6119 9.616V5.008C-11.6119 4.696 -11.5339 4.468 -11.3779 4.324C-11.2219 4.168 -10.9999 4.09 -10.7119 4.09C-10.4239 4.09 -10.2019 4.168 -10.0459 4.324C-9.87794 4.468 -9.79394 4.696 -9.79394 5.008V9.634C-9.79394 10.342 -9.64994 10.864 -9.36194 11.2C-9.07394 11.536 -8.61794 11.704 -7.99394 11.704C-7.30994 11.704 -6.75794 11.476 -6.33794 11.02C-5.90594 10.552 -5.68994 9.94 -5.68994 9.184V5.008C-5.68994 4.696 -5.61194 4.468 -5.45594 4.324C-5.29994 4.168 -5.07194 4.09 -4.77194 4.09C-4.48394 4.09 -4.26194 4.168 -4.10594 4.324C-3.94994 4.468 -3.87194 4.696 -3.87194 5.008V12.208C-3.87194 12.82 -4.16594 13.126 -4.75394 13.126C-5.02994 13.126 -5.24594 13.048 -5.40194 12.892C-5.55794 12.724 -5.63594 12.496 -5.63594 12.208V10.678L-5.40194 11.074C-5.64194 11.746 -6.02594 12.262 -6.55394 12.622C-7.08194 12.982 -7.70594 13.162 -8.42594 13.162ZM2.81211 13.162C1.85211 13.162 1.02411 12.982 0.328109 12.622C-0.355891 12.25 -0.889891 11.728 -1.27389 11.056C-1.64589 10.372 -1.83189 9.562 -1.83189 8.626C-1.83189 7.714 -1.64589 6.916 -1.27389 6.232C-0.901891 5.548 -0.391891 5.014 0.25611 4.63C0.90411 4.246 1.64211 4.054 2.47011 4.054C3.08211 4.054 3.62811 4.156 4.10811 4.36C4.58811 4.552 4.99611 4.84 5.33211 5.224C5.68011 5.596 5.93811 6.052 6.10611 6.592C6.28611 7.132 6.37611 7.738 6.37611 8.41C6.37611 8.614 6.31611 8.77 6.19611 8.878C6.07611 8.974 5.89611 9.022 5.65611 9.022H-0.39189V7.906H5.15211L4.84611 8.158C4.84611 7.558 4.75611 7.048 4.57611 6.628C4.40811 6.208 4.15011 5.89 3.80211 5.674C3.46611 5.446 3.04611 5.332 2.54211 5.332C1.97811 5.332 1.49811 5.464 1.10211 5.728C0.71811 5.992 0.424109 6.358 0.220109 6.826C0.0161096 7.294 -0.0858904 7.84 -0.0858904 8.464V8.572C-0.0858904 9.628 0.16011 10.426 0.65211 10.966C1.15611 11.494 1.88211 11.758 2.83011 11.758C3.19011 11.758 3.56811 11.71 3.96411 11.614C4.37211 11.518 4.75611 11.356 5.11611 11.128C5.32011 11.008 5.50011 10.954 5.65611 10.966C5.82411 10.978 5.95611 11.032 6.05211 11.128C6.16011 11.224 6.22611 11.344 6.25011 11.488C6.27411 11.632 6.25011 11.782 6.17811 11.938C6.10611 12.082 5.98011 12.214 5.80011 12.334C5.39211 12.61 4.91811 12.82 4.37811 12.964C3.83811 13.096 3.31611 13.162 2.81211 13.162ZM9.24008 13.072C8.89208 13.072 8.61008 12.964 8.39408 12.748C8.17808 12.532 8.07008 12.256 8.07008 11.92C8.07008 11.584 8.17808 11.314 8.39408 11.11C8.61008 10.894 8.89208 10.786 9.24008 10.786C9.58808 10.786 9.86408 10.894 10.0681 11.11C10.2721 11.314 10.3741 11.584 10.3741 11.92C10.3741 12.256 10.2721 12.532 10.0681 12.748C9.86408 12.964 9.58808 13.072 9.24008 13.072ZM11.4892 16.42C11.2732 16.432 11.0992 16.396 10.9672 16.312C10.8232 16.228 10.7272 16.12 10.6792 15.988C10.6192 15.856 10.6012 15.718 10.6252 15.574C10.6372 15.442 10.6972 15.322 10.8052 15.214C10.9012 15.118 11.0332 15.064 11.2012 15.052C11.8012 15.016 12.2392 14.854 12.5152 14.566C12.8032 14.278 12.9472 13.822 12.9472 13.198V5.008C12.9472 4.708 13.0252 4.48 13.1812 4.324C13.3492 4.168 13.5772 4.09 13.8652 4.09C14.1652 4.09 14.3872 4.168 14.5312 4.324C14.6872 4.48 14.7652 4.708 14.7652 5.008V13.054C14.7652 13.798 14.6392 14.41 14.3872 14.89C14.1472 15.382 13.7872 15.748 13.3072 15.988C12.8272 16.228 12.2212 16.372 11.4892 16.42ZM13.8652 2.254C13.5052 2.254 13.2232 2.164 13.0192 1.984C12.8272 1.804 12.7312 1.552 12.7312 1.228C12.7312 0.891999 12.8272 0.639999 13.0192 0.471999C13.2232 0.291999 13.5052 0.202 13.8652 0.202C14.2252 0.202 14.5012 0.291999 14.6932 0.471999C14.8852 0.639999 14.9812 0.891999 14.9812 1.228C14.9812 1.552 14.8852 1.804 14.6932 1.984C14.5012 2.164 14.2252 2.254 13.8652 2.254ZM20.4009 13.162C19.8729 13.162 19.3269 13.102 18.7629 12.982C18.2109 12.862 17.7009 12.658 17.2329 12.37C17.0769 12.262 16.9689 12.142 16.9089 12.01C16.8489 11.878 16.8249 11.746 16.8369 11.614C16.8609 11.47 16.9149 11.35 16.9989 11.254C17.0949 11.146 17.2089 11.08 17.3409 11.056C17.4849 11.032 17.6349 11.062 17.7909 11.146C18.2589 11.41 18.7089 11.596 19.1409 11.704C19.5729 11.8 19.9989 11.848 20.4189 11.848C21.0549 11.848 21.5349 11.734 21.8589 11.506C22.1829 11.278 22.3449 10.972 22.3449 10.588C22.3449 10.276 22.2369 10.036 22.0209 9.868C21.8049 9.688 21.4809 9.55 21.0489 9.454L19.3389 9.112C18.5949 8.956 18.0309 8.68 17.6469 8.284C17.2629 7.888 17.0709 7.384 17.0709 6.772C17.0709 6.22 17.2209 5.74 17.5209 5.332C17.8209 4.924 18.2409 4.612 18.7809 4.396C19.3209 4.168 19.9449 4.054 20.6529 4.054C21.1809 4.054 21.6789 4.12 22.1469 4.252C22.6149 4.384 23.0469 4.582 23.4429 4.846C23.5989 4.93 23.7009 5.044 23.7489 5.188C23.7969 5.32 23.8029 5.452 23.7669 5.584C23.7429 5.716 23.6829 5.836 23.5869 5.944C23.4909 6.04 23.3709 6.1 23.2269 6.124C23.0949 6.136 22.9449 6.1 22.7769 6.016C22.4169 5.788 22.0569 5.626 21.6969 5.53C21.3489 5.434 21.0009 5.386 20.6529 5.386C20.0169 5.386 19.5369 5.506 19.2129 5.746C18.9009 5.974 18.7449 6.286 18.7449 6.682C18.7449 6.982 18.8409 7.228 19.0329 7.42C19.2249 7.612 19.5249 7.75 19.9329 7.834L21.6429 8.176C22.4229 8.332 23.0109 8.596 23.4069 8.968C23.8149 9.34 24.0189 9.844 24.0189 10.48C24.0189 11.308 23.6889 11.962 23.0289 12.442C22.3689 12.922 21.4929 13.162 20.4009 13.162Z" fill="#1A1926"/>
</g>
</g>
<g id="Elements / Overlay" opacity="0.2">
<rect width="1442" height="1170" transform="translate(-529 -901)" fill="#1A1A1A"/>
</g>
<g id="Add Project">
<g id="Elements / Container [Popup]">
<rect x="-43" y="-881" width="550" height="1131" rx="16" fill="white"/>
<g id="bg_2" filter="url(#filter2_dd_7623_3883)">
<rect x="-43" y="-881" width="550" height="1131" rx="16" fill="white"/>
</g>
</g>
<g id="Members">
<g id="Forms / Inputs / Input + Invite [2]">
<rect x="-12.5" y="-12.5" width="489" height="47" rx="13.5" stroke="#EBEEF2"/>
<g id="Tags / Invite">
<rect x="-7" y="-7" width="167" height="36" rx="8" fill="#F5F7FA"/>
<g id="Avatars/ 40px / #2">
<circle id="bg_3" cx="11" cy="11" r="11" fill="#FEC0B2"/>
<circle id="bg_4" cx="11" cy="11" r="11" fill="url(#paint0_radial_7623_3883)"/>
<g id="Avatar">
<mask id="mask0_7623_3883" style="mask-type:alpha" maskUnits="userSpaceOnUse" x="0" y="0" width="22" height="22">
<circle id="bg_5" cx="11" cy="11" r="11" fill="#C4C4C4"/>
</mask>
<g mask="url(#mask0_7623_3883)">
<path id="Vector" d="M18.4985 16.3053C18.5226 14.6417 17.968 14.3524 17.6907 13.3759C17.4116 12.3929 17.6956 11.7216 17.3653 10.6334C17.0579 9.62077 16.4994 9.44969 16.3285 8.01139C16.0392 5.57622 13.4111 4.32251 12.1092 4.32251C11.741 4.32251 11.4897 4.41595 11.3206 4.52771C11.125 4.65713 10.8751 4.65713 10.6796 4.52771C10.5106 4.41595 10.2592 4.32251 9.89103 4.32251C8.58908 4.32251 5.96104 5.57622 5.67171 8.01139C5.50081 9.44966 4.94238 9.62074 4.63498 10.6334C4.30463 11.7216 4.58863 12.3929 4.3095 13.3759C4.03223 14.3524 3.47769 14.6417 3.5018 16.3053C3.52975 18.2346 2.41682 18.6682 2.8508 19.946C3.17471 20.8997 4.9243 21.6819 4.9243 21.6819H17.0759C17.0759 21.6819 18.8255 20.8996 19.1494 19.946C19.5834 18.6682 18.4705 18.2346 18.4985 16.3053Z" fill="url(#paint1_linear_7623_3883)"/>
<path id="Vector_2" d="M11.0001 4.62476C10.8887 4.62476 10.7774 4.59242 10.6796 4.52771C10.5106 4.41595 10.2592 4.32251 9.89103 4.32251C8.58908 4.32251 5.96104 5.57622 5.67171 8.01139C5.50081 9.44966 4.94238 9.62074 4.63498 10.6334C4.30463 11.7216 4.58863 12.3929 4.3095 13.3759C4.03223 14.3524 3.47769 14.6417 3.5018 16.3053C3.52975 18.2346 2.41682 18.6682 2.8508 19.946C3.17471 20.8997 4.9243 21.6819 4.9243 21.6819H11.0001V4.62476Z" fill="url(#paint2_linear_7623_3883)"/>
<path id="Vector_3" d="M16.4965 18.3801L13.5083 17.3254C13.0456 17.1621 12.7361 16.7248 12.7361 16.2341V14.7383H9.26422V16.2341C9.26422 16.7248 8.95479 17.1621 8.49207 17.3254L5.50387 18.3801C4.80982 18.625 4.3457 19.281 4.3457 20.017V21.3928C4.3457 21.8721 4.73432 22.2607 5.21367 22.2607H16.7867C17.266 22.2607 17.6546 21.8721 17.6546 21.3928V20.017C17.6546 19.281 17.1905 18.625 16.4965 18.3801Z" fill="url(#paint3_linear_7623_3883)"/>
<path id="Vector_4" d="M16.4964 18.3803L14.5026 17.6765C13.7179 18.7611 12.6499 19.9572 11.4068 20.6199C11.1532 20.7551 10.8471 20.7551 10.5935 20.6199C9.35037 19.9572 8.28242 18.7611 7.49773 17.6765L5.50387 18.3803C4.80982 18.6252 4.3457 19.2812 4.3457 20.0173V21.393C4.3457 21.8723 4.73432 22.2609 5.21367 22.2609H16.7867C17.266 22.2609 17.6546 21.8723 17.6546 21.393V20.0173C17.6546 19.2812 17.1905 18.6252 16.4964 18.3803Z" fill="url(#paint4_linear_7623_3883)"/>
<path id="Vector_5" d="M9.26419 15.5254C9.79838 15.7616 10.3854 15.8956 11.0001 15.8956C11.6149 15.8956 12.2019 15.7616 12.7361 15.5254V14.7383H9.26416L9.26419 15.5254Z" fill="url(#paint5_linear_7623_3883)"/>
<path id="Vector_6" d="M11 15.3167C8.92271 15.3167 7.23877 13.6327 7.23877 11.5554V6.63696H14.7612V11.5555C14.7612 13.6327 13.0772 15.3167 11 15.3167Z" fill="url(#paint6_linear_7623_3883)"/>
<path id="Vector_7" d="M7.23877 6.63696V11.5555C7.23877 13.6327 8.92275 15.3167 11 15.3167C11.1973 15.3167 11.3895 15.2969 11.5786 15.2677C9.77684 14.9887 8.39606 13.4355 8.39606 11.5555V10.0508C8.39606 9.81296 8.46984 9.58313 8.59583 9.38132C8.5965 9.38027 8.59716 9.37918 8.59783 9.37813C9.07287 8.6158 9.51758 8.50372 10.0324 8.37402C10.3281 8.2995 10.6726 8.21268 11 7.99455C11.3273 8.21268 11.6718 8.2995 11.9675 8.37402C12.4824 8.50375 12.927 8.6158 13.4021 9.3781C13.844 10.0872 14.3386 10.4792 14.7612 10.782V6.63696H7.23877Z" fill="url(#paint7_linear_7623_3883)"/>
<path id="Vector_8" d="M11.0001 13.5809C10.5658 13.5809 10.1654 13.4416 9.92895 13.2082C9.81509 13.0957 9.81397 12.9127 9.92612 12.7991C10.0389 12.6852 10.222 12.6841 10.3352 12.7962C10.4316 12.8912 10.6633 13.0022 11.0001 13.0022C11.3369 13.0022 11.5685 12.8912 11.6649 12.7962C11.7782 12.6841 11.9613 12.6852 12.074 12.7991C12.1862 12.9127 12.185 13.0958 12.0712 13.2082C11.8347 13.4416 11.4344 13.5809 11.0001 13.5809Z" fill="#A06E50"/>
<path id="Vector_9" d="M17.6906 13.3759C17.4115 12.3929 17.6955 11.7216 17.3652 10.6334C17.0578 9.62077 16.4993 9.4497 16.3284 8.01139C16.0391 5.57622 13.411 4.32251 12.1091 4.32251C11.7409 4.32251 11.4895 4.41595 11.3205 4.52771C11.2228 4.59242 11.1114 4.62476 11 4.62476V7.21577C11.7474 8.15608 12.8565 7.40864 13.8933 9.07226C14.7745 10.4863 15.881 10.4506 16.2702 11.5654C16.3818 11.8849 16.3213 12.2263 16.348 12.5637C16.4972 14.4489 17.9438 15.3169 18.5941 17.2842C18.5321 17.0032 18.4928 16.6837 18.4983 16.3054C18.5225 14.6417 17.9679 14.3524 17.6906 13.3759Z" fill="url(#paint8_linear_7623_3883)"/>
<path id="Vector_10" d="M4.30943 13.3759C4.58856 12.3929 4.30456 11.7216 4.63491 10.6334C4.94231 9.62077 5.50077 9.4497 5.67164 8.01139C5.961 5.57622 8.58904 4.32251 9.89099 4.32251C10.2591 4.32251 10.5105 4.41595 10.6795 4.52771C10.7773 4.59242 10.8887 4.62476 11.0001 4.62476V7.21577C10.2527 8.15608 9.14358 7.40864 8.10681 9.07226C7.2256 10.4863 6.11908 10.4506 5.72983 11.5654C5.61828 11.8849 5.67879 12.2263 5.65209 12.5637C5.50291 14.4489 4.0563 15.3169 3.40601 17.2842C3.46802 17.0032 3.50722 16.6837 3.50172 16.3054C3.47762 14.6417 4.03216 14.3524 4.30943 13.3759Z" fill="url(#paint9_linear_7623_3883)"/>
</g>
</g>
</g>
</g>
</g>
</g>
</g>
</g>
<defs>
<filter id="filter0_d_7623_3883" x="-221" y="-29" width="334" height="312" filterUnits="userSpaceOnUse" color-interpolation-filters="sRGB">
<feFlood flood-opacity="0" result="BackgroundImageFix"/>
<feColorMatrix in="SourceAlpha" type="matrix" values="0 0 0 0 0 0 0 0 0 0 0 0 0 0 0 0 0 0 127 0" result="hardAlpha"/>
<feMorphology radius="30" operator="erode" in="SourceAlpha" result="effect1_dropShadow_7623_3883"/>
<feOffset dy="40"/>
<feGaussianBlur stdDeviation="15"/>
<feComposite in2="hardAlpha" operator="out"/>
<feColorMatrix type="matrix" values="0 0 0 0 0.0156863 0 0 0 0 0.0588235 0 0 0 0 0.0823529 0 0 0 0.06 0"/>
<feBlend mode="normal" in2="BackgroundImageFix" result="effect1_dropShadow_7623_3883"/>
<feBlend mode="normal" in="SourceGraphic" in2="effect1_dropShadow_7623_3883" result="shape"/>
</filter>
<filter id="filter1_d_7623_3883" x="-241" y="-33" width="374" height="304" filterUnits="userSpaceOnUse" color-interpolation-filters="sRGB">
<feFlood flood-opacity="0" result="BackgroundImageFix"/>
<feColorMatrix in="SourceAlpha" type="matrix" values="0 0 0 0 0 0 0 0 0 0 0 0 0 0 0 0 0 0 127 0" result="hardAlpha"/>
<feMorphology radius="18" operator="erode" in="SourceAlpha" result="effect1_dropShadow_7623_3883"/>
<feOffset dy="20"/>
<feGaussianBlur stdDeviation="15"/>
<feComposite in2="hardAlpha" operator="out"/>
<feColorMatrix type="matrix" values="0 0 0 0 0.0156863 0 0 0 0 0.0588235 0 0 0 0 0.0823529 0 0 0 0.1 0"/>
<feBlend mode="normal" in2="BackgroundImageFix" result="effect1_dropShadow_7623_3883"/>
<feBlend mode="normal" in="SourceGraphic" in2="effect1_dropShadow_7623_3883" result="shape"/>
</filter>
<filter id="filter2_dd_7623_3883" x="-93" y="-881" width="650" height="1231" filterUnits="userSpaceOnUse" color-interpolation-filters="sRGB">
<feFlood flood-opacity="0" result="BackgroundImageFix"/>
<feColorMatrix in="SourceAlpha" type="matrix" values="0 0 0 0 0 0 0 0 0 0 0 0 0 0 0 0 0 0 127 0" result="hardAlpha"/>
<feOffset dy="50"/>
<feGaussianBlur stdDeviation="25"/>
<feComposite in2="hardAlpha" operator="out"/>
<feColorMatrix type="matrix" values="0 0 0 0 0.0156863 0 0 0 0 0.0588235 0 0 0 0 0.0823529 0 0 0 0.15 0"/>
<feBlend mode="normal" in2="BackgroundImageFix" result="effect1_dropShadow_7623_3883"/>
<feColorMatrix in="SourceAlpha" type="matrix" values="0 0 0 0 0 0 0 0 0 0 0 0 0 0 0 0 0 0 127 0" result="hardAlpha"/>
<feMorphology radius="30" operator="erode" in="SourceAlpha" result="effect2_dropShadow_7623_3883"/>
<feOffset dy="40"/>
<feGaussianBlur stdDeviation="15"/>
<feComposite in2="hardAlpha" operator="out"/>
<feColorMatrix type="matrix" values="0 0 0 0 0.0156863 0 0 0 0 0.0588235 0 0 0 0 0.0823529 0 0 0 0.15 0"/>
<feBlend mode="normal" in2="effect1_dropShadow_7623_3883" result="effect2_dropShadow_7623_3883"/>
<feBlend mode="normal" in="SourceGraphic" in2="effect2_dropShadow_7623_3883" result="shape"/>
</filter>
<radialGradient id="paint0_radial_7623_3883" cx="0" cy="0" r="1" gradientUnits="userSpaceOnUse" gradientTransform="translate(3.4375 3.4375) rotate(48.4682) scale(21.4292)">
<stop offset="0.449021" stop-color="#FEC0B2"/>
<stop offset="1" stop-color="#FF866B"/>
</radialGradient>
<linearGradient id="paint1_linear_7623_3883" x1="11.0001" y1="4.32251" x2="11.0001" y2="21.6819" gradientUnits="userSpaceOnUse">
<stop stop-color="#33282D"/>
<stop offset="1" stop-color="#6E5561"/>
</linearGradient>
<linearGradient id="paint2_linear_7623_3883" x1="6.87518" y1="4.32251" x2="6.87518" y2="21.6819" gradientUnits="userSpaceOnUse">
<stop stop-color="#1A1417"/>
<stop offset="1" stop-color="#5A4650"/>
</linearGradient>
<linearGradient id="paint3_linear_7623_3883" x1="8.38615" y1="17.332" x2="11.7491" y2="21.6401" gradientUnits="userSpaceOnUse">
<stop stop-color="#D4A06C"/>
<stop offset="1" stop-color="#FABD80"/>
</linearGradient>
<linearGradient id="paint4_linear_7623_3883" x1="6.41671" y1="18.1043" x2="15.3542" y2="21.5418" gradientUnits="userSpaceOnUse">
<stop stop-color="#ACED8E"/>
<stop offset="1" stop-color="#A6FFAA"/>
</linearGradient>
<linearGradient id="paint5_linear_7623_3883" x1="9.37555" y1="14.903" x2="10.2675" y2="16.7252" gradientUnits="userSpaceOnUse">
<stop stop-color="#C58646"/>
<stop offset="1" stop-color="#C68748" stop-opacity="0.06"/>
</linearGradient>
<linearGradient id="paint6_linear_7623_3883" x1="7.61539" y1="7.62415" x2="14.7198" y2="11.6648" gradientUnits="userSpaceOnUse">
<stop stop-color="#EDB379"/>
<stop offset="1" stop-color="#FFC182"/>
</linearGradient>
<linearGradient id="paint7_linear_7623_3883" x1="7.48011" y1="7.87214" x2="12.1025" y2="9.99742" gradientUnits="userSpaceOnUse">
<stop stop-color="#C58646"/>
<stop offset="1" stop-color="#C68748" stop-opacity="0.06"/>
</linearGradient>
<linearGradient id="paint8_linear_7623_3883" x1="11.6874" y1="4.58323" x2="18.3332" y2="16.9582" gradientUnits="userSpaceOnUse">
<stop stop-color="#5C4B53"/>
<stop offset="1" stop-color="#7A646F"/>
</linearGradient>
<linearGradient id="paint9_linear_7623_3883" x1="8.47912" y1="4.35406" x2="3.43746" y2="19.4791" gradientUnits="userSpaceOnUse">
<stop offset="0.00373261" stop-color="#4A3B43"/>
<stop offset="1" stop-color="#826875"/>
</linearGradient>
<clipPath id="clip0_7623_3883">
<rect width="1440" height="1170" fill="white" transform="translate(-529 -901)"/>
</clipPath>
</defs>
</svg>
